HIERARCHY
ROOT Hips
{
    OFFSET 0.000000 0.000000 0.000000
    CHANNELS 6 Xposition Yposition Zposition Zrotation Xrotation Yrotation
    JOINT Spine
    {
        OFFSET -0.000000 7.236184 0.000000
        CHANNELS 3 Zrotation Xrotation Yrotation
        JOINT Spine1
        {
            OFFSET -0.000000 20.420147 0.000000
            CHANNELS 3 Zrotation Xrotation Yrotation
            JOINT Neck
            {
                OFFSET -0.000000 20.336288 1.848754
                CHANNELS 3 Zrotation Xrotation Yrotation
                JOINT Head
                {
                    OFFSET -0.000000 12.354461 -1.764923
                    CHANNELS 3 Zrotation Xrotation Yrotation
                    End Site
                    {
                        OFFSET -0.000000 22.061537 0.000000
                    }
                }
            }
            JOINT LeftShoulder
            {
                OFFSET 3.573296 18.396038 -0.314103
                CHANNELS 3 Zrotation Xrotation Yrotation
                JOINT LeftArm
                {
                    OFFSET 10.880760 0.000000 0.000000
                    CHANNELS 3 Zrotation Xrotation Yrotation
                    JOINT LeftForeArm
                    {
                        OFFSET 27.185530 0.000000 0.000000
                        CHANNELS 3 Zrotation Xrotation Yrotation
                        JOINT LeftHand
                        {
                            OFFSET 27.825975 0.000000 0.000000
                            CHANNELS 3 Zrotation Xrotation Yrotation
                            End Site
                            {
                                OFFSET 13.236923 0.000000 0.000000
                            }
                        }
                    }
                }
            }
            JOINT RightShoulder
            {
                OFFSET -3.474926 18.396038 -0.314103
                CHANNELS 3 Zrotation Xrotation Yrotation
                JOINT RightArm
                {
                    OFFSET -10.880760 0.000000 0.000000
                    CHANNELS 3 Zrotation Xrotation Yrotation
                    JOINT RightForeArm
                    {
                        OFFSET -27.185530 0.000000 0.000000
                        CHANNELS 3 Zrotation Xrotation Yrotation
                        JOINT RightHand
                        {
                            OFFSET -27.825975 0.000000 0.000000
                            CHANNELS 3 Zrotation Xrotation Yrotation
                            End Site
                            {
                                OFFSET -13.236923 0.000000 0.000000
                            }
                        }
                    }
                }
            }
        }
    }
    JOINT LeftUpLeg
    {
        OFFSET 8.824615 0.000000 0.000000
        CHANNELS 3 Zrotation Xrotation Yrotation
        JOINT LeftLeg
        {
            OFFSET -0.000000 -35.111282 0.000000
            CHANNELS 3 Zrotation Xrotation Yrotation
            JOINT LeftFoot
            {
                OFFSET -0.000000 -42.324711 0.000000
                CHANNELS 3 Zrotation Xrotation Yrotation
                JOINT LeftToeBase
                {
                    OFFSET -0.000000 -5.735999 13.236923
                    CHANNELS 3 Zrotation Xrotation Yrotation
                    End Site
                    {
                        OFFSET -0.000000 0.000000 3.529846
                    }
                }
            }
        }
    }
    JOINT RightUpLeg
    {
        OFFSET -8.824615 0.000000 0.000000
        CHANNELS 3 Zrotation Xrotation Yrotation
        JOINT RightLeg
        {
            OFFSET -0.000000 -35.111282 0.000000
            CHANNELS 3 Zrotation Xrotation Yrotation
            JOINT RightFoot
            {
                OFFSET -0.000000 -42.324711 0.000000
                CHANNELS 3 Zrotation Xrotation Yrotation
                JOINT RightToeBase
                {
                    OFFSET -0.000000 -5.735999 13.236923
                    CHANNELS 3 Zrotation Xrotation Yrotation
                    End Site
                    {
                        OFFSET -0.000000 0.000000 3.529846
                    }
                }
            }
        }
    }
}
MOTION
Frames:    11
Frame Time:    0.008333
-5.067702    86.580124    92.426834    15.340619    22.959906    -93.772263    -7.580781    -13.689866    1.441571    -5.322828    13.317288    2.974607    6.632747    29.203989    -14.640661    25.697796    8.312493    -12.654024    2.399464    10.849635    -2.173960    -35.946407    28.025404    -51.966881    23.613691    -37.166489    -124.507973    50.277740    6.369519    -3.668819    5.412841    21.410170    -6.620588    50.426617    27.023661    23.583382    -34.818516    -13.033911    57.905987    -38.509857    4.810357    6.059221    21.928085    -25.459007    2.266817    1.371001    24.415009    1.144585    -2.715314    -11.111179    -14.861337    3.300675    0.925880    -3.652414    -1.285861    -27.867462    -2.317809    16.055622    35.050423    -13.932199    19.132668    19.279345    -8.857158    -2.218629    -1.126596    2.403315    
-5.133927    86.509560    92.409599    15.308573    22.640556    -93.792572    -7.674700    -13.748205    1.420819    -5.679727    13.325676    3.011323    6.555415    29.161049    -14.511840    25.604214    8.397783    -12.556968    2.323759    10.836617    -2.208431    -36.096630    27.862122    -52.114464    23.514261    -37.119061    -124.704033    50.456020    6.408458    -3.675736    5.376723    21.457294    -6.579754    50.471577    27.853933    23.785442    -34.843838    -13.006843    57.898521    -38.415005    4.847271    6.085262    21.671160    -25.484438    2.207281    1.281660    24.582241    1.355873    -2.882005    -11.196321    -15.062702    3.328353    0.934007    -3.682985    -0.380121    -27.269125    -1.467734    15.907239    33.984421    -14.216910    19.174784    19.164831    -9.176973    -2.233722    -1.135145    2.419692    
-5.194277    86.444267    92.397507    15.281765    22.343212    -93.803864    -7.748764    -13.794750    1.401764    -6.011652    13.332211    3.043642    6.489340    29.117619    -14.393041    25.492426    8.466837    -12.466507    2.256256    10.820128    -2.256317    -36.251625    27.707125    -52.280888    23.399092    -37.062000    -124.927856    50.655968    6.441403    -3.707211    5.339041    21.484240    -6.536836    50.471241    28.641350    23.981915    -34.810787    -12.925155    57.860912    -38.338005    4.885613    6.123633    21.428749    -25.516136    2.151608    1.196265    24.735361    1.548955    -3.031044    -11.266624    -15.257380    3.348679    0.935660    -3.705460    0.413555    -26.705290    -0.623040    15.786472    32.976757    -14.536973    19.237356    19.029598    -9.578693    -2.232184    -1.207879    2.418272    
-5.247767    86.385086    92.391518    15.261344    22.067930    -93.810066    -7.802318    -13.828905    1.385135    -6.316585    13.337288    3.071919    6.434106    29.073355    -14.283957    25.363914    8.518954    -12.382013    2.197859    10.800629    -2.316057    -36.410477    27.562025    -52.465061    23.268354    -36.995361    -125.177460    50.875984    6.466527    -3.761235    5.300064    21.492355    -6.492062    50.431561    29.378477    24.173615    -34.718990    -12.790994    57.794476    -38.274723    4.924771    6.171642    21.200409    -25.551981    2.103652    1.117717    24.871408    1.718235    -3.160657    -11.320849    -15.440167    3.361793    0.928478    -3.720018    1.085035    -26.193903    0.205142    15.705731    32.057030    -14.889932    19.330088    18.874447    -10.040832    -2.215475    -1.346719    2.400638    
-5.293312    86.333145    92.392410    15.249013    21.816101    -93.816483    -7.834126    -13.850540    1.371910    -6.591550    13.340993    3.096547    6.390765    29.027779    -14.184145    25.217796    8.553675    -12.302958    2.149290    10.778452    -2.386205    -36.571342    27.427593    -52.668194    23.124447    -36.919758    -125.448311    51.112701    6.485207    -3.833697    5.260200    21.482773    -6.444896    50.357357    30.060713    24.361113    -34.570309    -12.608690    57.697327    -38.220753    4.962548    6.225573    20.987631    -25.589970    2.067540    1.049099    24.987730    1.858410    -3.269716    -11.358870    -15.605332    3.368205    0.912111    -3.727221    1.625825    -25.753551    1.003920    15.676468    31.252649    -15.270745    19.462469    18.707033    -10.534201    -2.187371    -1.539685    2.370830    
-5.329599    86.290100    92.400764    15.246435    21.591841    -93.828888    -7.842655    -13.860106    1.363153    -6.831366    13.343775    3.117785    6.359889    28.980732    -14.093493    25.055880    8.571410    -12.229314    2.111785    10.754034    -2.464317    -36.730232    27.304054    -52.893162    22.972921    -36.836563    -125.730759    51.357071    6.501395    -3.917501    5.220571    21.458004    -6.395449    50.252892    30.679335    24.545013    -34.369911    -12.386147    57.567333    -38.173935    4.995619    6.280608    20.794657    -25.627367    2.045698    0.992974    25.080818    1.966811    -3.356980    -11.381145    -15.746845    3.368189    0.888389    -3.727360    2.026226    -25.404202    1.750058    15.706573    30.591482    -15.667345    19.641033    18.546263    -11.014975    -2.153862    -1.759005    2.335234    
-5.356206    86.256767    92.417076    15.255359    21.395300    -93.853973    -7.827179    -13.858747    1.359514    -7.034030    13.346086    3.136103    6.341279    28.931446    -14.009899    24.875807    8.573148    -12.159251    2.085144    10.727715    -2.549373    -36.883224    27.188499    -53.154030    22.819384    -36.747936    -126.017746    51.604538    6.522005    -4.002852    5.180828    21.419245    -6.342239    50.119099    31.242535    24.729464    -34.120438    -12.128221    57.396885    -38.130009    5.019588    6.332696    20.623068    -25.661970    2.038803    0.949435    25.148823    2.047293    -3.423682    -11.388474    -15.863532    3.362914    0.860638    -3.721707    2.287892    -25.156181    2.433810    15.800589    30.081142    -16.074333    19.875008    18.415329    -11.444571    -2.120632    -1.975269    2.299911    
-5.372299    86.234642    92.441147    15.277193    21.231564    -93.897881    -7.787436    -13.847701    1.361602    -7.192844    13.347791    3.151328    6.334416    28.880388    -13.932840    24.680305    8.560499    -12.092623    2.069938    10.700054    -2.638348    -37.021362    27.082561    -53.460762    22.674889    -36.661652    -126.293724    51.843742    6.553751    -4.075524    5.141282    21.369259    -6.284879    49.959221    31.746090    24.914516    -33.830326    -11.846061    57.183071    -38.085720    5.030146    6.376491    20.479130    -25.690413    2.045907    0.918320    25.187958    2.104976    -3.469949    -11.381064    -15.952456    3.353517    0.833777    -3.711485    2.409170    -25.021965    3.026897    15.955971    29.736162    -16.474007    20.164635    18.339752    -11.778703    -2.094367    -2.152161    2.271998    
-5.377745    86.224457    92.472794    15.313080    21.102388    -93.966675    -7.723786    -13.827971    1.369524    -7.304027    13.348193    3.163240    6.337812    28.827768    -13.860193    24.469528    8.535452    -12.027774    2.066037    10.671501    -2.729120    -37.138966    26.989513    -53.821796    22.548275    -36.587524    -126.548607    52.067020    6.599311    -4.125885    5.101635    21.310076    -6.221828    49.774246    32.195576    25.102573    -33.504700    -11.546998    56.920696    -38.035900    5.023522    6.407931    20.366611    -25.709511    2.064258    0.897256    25.195414    2.149319    -3.497173    -11.358938    -16.013626    3.341078    0.812253    -3.697862    2.395180    -25.005827    3.511761    16.167667    29.559355    -16.852549    20.510609    18.335718    -11.993063    -2.081149    -2.258219    2.258001    
-5.372523    86.226784    92.511787    15.364066    21.008686    -94.066505    -7.637284    -13.800007    1.383335    -7.363218    13.346263    3.171402    6.349127    28.774513    -13.789281    24.244005    8.498994    -11.962501    2.073384    10.641464    -2.820576    -37.235931    26.917261    -54.235172    22.444281    -36.534912    -126.778564    52.270859    6.656364    -4.152473    5.061365    21.243427    -6.151222    49.563671    32.597713    25.296543    -33.145073    -11.235766    56.604202    -37.974186    4.996445    6.423765    20.288715    -25.715897    2.090330    0.882890    25.168398    2.191745    -3.506710    -11.321666    -16.048010    3.326095    0.798339    -3.681370    2.250307    -25.110374    3.872774    16.429747    29.553408    -17.196501    20.912624    18.412634    -12.076598    -2.085111    -2.268897    2.262335    
-5.357111    86.241608    92.556641    15.428965    20.952700    -94.199287    -7.532083    -13.764417    1.402343    -7.365737    13.340736    3.175216    6.366713    28.723129    -13.719706    24.008858    8.452856    -11.896514    2.091735    10.610121    -2.909567    -37.313126    26.876677    -54.677269    22.366535    -36.512722    -126.979164    52.449387    6.716230    -4.159080    5.020923    21.172901    -6.073291    49.333199    32.948780    25.493357    -32.761669    -10.924811    56.238117    -37.895630    4.946702    6.421471    20.249187    -25.705910    2.119247    0.872308    25.105423    2.242337    -3.500031    -11.269836    -16.056349    3.309178    0.791795    -3.662691    1.984283    -25.331377    4.088939    16.728014    29.718147    -17.486124    21.353966    18.570385    -12.029230    -2.107220    -2.172952    2.286009    
